REM DIRINDEX 1\2\6,1\2\7,1\2\8,1\2\9,1\3\10,1\3\11,1\4\12,1\4\13,1\4\14,1\5\15,1\5\16,1\5\17
REM DIRNAME folder01,folder02,folder03,folder04,folder05,folder06,folder07,folder08,folder09,folder10,folder11,folder12,folder13,folder14,folder15,folder16,folder17
TITLE ""
FILE "1400_3_sec14_1316_1331.mp3" MP3
  TRACK 01 AUDIO
    TITLE "0:"
    INDEX 01 00:00:00
  TRACK 02 AUDIO
    TITLE "17:cjc029_7073"
    INDEX 01 00:00:15
  TRACK 03 AUDIO
    TITLE "0:"
    INDEX 01 00:01:46
  TRACK 04 AUDIO
    TITLE "16:cjc029_7074"
    INDEX 01 00:01:50
  TRACK 05 AUDIO
    TITLE "0:"
    INDEX 01 00:02:73
  TRACK 06 AUDIO
    TITLE "17:cjc029_7075"
    INDEX 01 00:03:61
  TRACK 07 AUDIO
    TITLE "0:"
    INDEX 01 00:05:22
  TRACK 08 AUDIO
    TITLE "16:cjc029_7076"
    INDEX 01 00:05:30
  TRACK 09 AUDIO
    TITLE "0:"
    INDEX 01 00:06:55
  TRACK 10 AUDIO
    TITLE "17:cjc029_7077"
    INDEX 01 00:07:39
  TRACK 11 AUDIO
    TITLE "0:"
    INDEX 01 00:08:44
  TRACK 12 AUDIO
    TITLE "16:cjc029_7078"
    INDEX 01 00:08:50
  TRACK 13 AUDIO
    TITLE "0:"
    INDEX 01 00:09:73
  TRACK 14 AUDIO
    TITLE "17:cjc029_7079"
    INDEX 01 00:10:57
  TRACK 15 AUDIO
    TITLE "0:"
    INDEX 01 00:13:10
  TRACK 16 AUDIO
    TITLE "16:cjc029_7080"
    INDEX 01 00:13:18
  TRACK 17 AUDIO
    TITLE "0:"
    INDEX 01 00:14:49
  TRACK 18 AUDIO
    TITLE "17:cjc029_7081"
    INDEX 01 00:15:34
  TRACK 19 AUDIO
    TITLE "0:"
    INDEX 01 00:16:38
  TRACK 20 AUDIO
    TITLE "16:cjc029_7082"
    INDEX 01 00:16:44
  TRACK 21 AUDIO
    TITLE "0:"
    INDEX 01 00:17:67
  TRACK 22 AUDIO
    TITLE "17:cjc029_7083"
    INDEX 01 00:18:48
  TRACK 23 AUDIO
    TITLE "0:"
    INDEX 01 00:20:28
  TRACK 24 AUDIO
    TITLE "16:cjc029_7084"
    INDEX 01 00:20:34
  TRACK 25 AUDIO
    TITLE "0:"
    INDEX 01 00:21:49
  TRACK 26 AUDIO
    TITLE "17:cjc029_7085"
    INDEX 01 00:22:32
  TRACK 27 AUDIO
    TITLE "0:"
    INDEX 01 00:23:40
  TRACK 28 AUDIO
    TITLE "16:cjc029_7086"
    INDEX 01 00:23:46
  TRACK 29 AUDIO
    TITLE "0:"
    INDEX 01 00:25:07
  TRACK 30 AUDIO
    TITLE "17:cjc029_7087"
    INDEX 01 00:25:66
  TRACK 31 AUDIO
    TITLE "0:"
    INDEX 01 00:27:16
  TRACK 32 AUDIO
    TITLE "16:cjc029_7088"
    INDEX 01 00:27:24
  TRACK 33 AUDIO
    TITLE "0:"
    INDEX 01 00:28:47
  TRACK 34 AUDIO
    TITLE "17:cjc029_7089"
    INDEX 01 00:29:33
  TRACK 35 AUDIO
    TITLE "0:"
    INDEX 01 00:30:73
  TRACK 36 AUDIO
    TITLE "16:cjc029_7090"
    INDEX 01 00:31:06
  TRACK 37 AUDIO
    TITLE "0:"
    INDEX 01 00:32:37
  TRACK 38 AUDIO
    TITLE "17:cjc029_7091"
    INDEX 01 00:33:22
  TRACK 39 AUDIO
    TITLE "0:"
    INDEX 01 00:34:34
  TRACK 40 AUDIO
    TITLE "16:cjc029_7092"
    INDEX 01 00:34:42
  TRACK 41 AUDIO
    TITLE "0:"
    INDEX 01 00:35:70
  TRACK 42 AUDIO
    TITLE "17:cjc029_7093"
    INDEX 01 00:36:56
  TRACK 43 AUDIO
    TITLE "0:"
    INDEX 01 00:37:52
  TRACK 44 AUDIO
    TITLE "16:cjc029_7094"
    INDEX 01 00:37:59
  TRACK 45 AUDIO
    TITLE "0:"
    INDEX 01 00:39:07
  TRACK 46 AUDIO
    TITLE "17:cjc029_7095"
    INDEX 01 00:39:70
  TRACK 47 AUDIO
    TITLE "0:"
    INDEX 01 00:42:10
  TRACK 48 AUDIO
    TITLE "16:cjc029_7096"
    INDEX 01 00:42:16
  TRACK 49 AUDIO
    TITLE "0:"
    INDEX 01 00:43:42
  TRACK 50 AUDIO
    TITLE "17:cjc029_7097"
    INDEX 01 00:44:26
  TRACK 51 AUDIO
    TITLE "0:"
    INDEX 01 00:45:61
  TRACK 52 AUDIO
    TITLE "16:cjc029_7098"
    INDEX 01 00:45:67
  TRACK 53 AUDIO
    TITLE "0:"
    INDEX 01 00:47:05
  TRACK 54 AUDIO
    TITLE "17:cjc029_7099"
    INDEX 01 00:47:64
  TRACK 55 AUDIO
    TITLE "0:"
    INDEX 01 00:49:29
  TRACK 56 AUDIO
    TITLE "16:cjc029_7100"
    INDEX 01 00:49:33
  TRACK 57 AUDIO
    TITLE "0:"
    INDEX 01 00:50:64
  TRACK 58 AUDIO
    TITLE "17:cjc029_7101"
    INDEX 01 00:51:50
  TRACK 59 AUDIO
    TITLE "0:"
    INDEX 01 00:54:46
  TRACK 60 AUDIO
    TITLE "16:cjc029_7102"
    INDEX 01 00:55:40
  TRACK 61 AUDIO
    TITLE "0:"
    INDEX 01 00:56:72
  TRACK 62 AUDIO
    TITLE "17:cjc029_7103"
    INDEX 01 00:57:56
  TRACK 63 AUDIO
    TITLE "0:"
    INDEX 01 00:59:55
  TRACK 64 AUDIO
    TITLE "16:cjc029_7104"
    INDEX 01 00:59:61
  TRACK 65 AUDIO
    TITLE "0:"
    INDEX 01 01:01:36
